# Blender v2.76 (sub 0) OBJ File: ''
# www.blender.org
mtllib cubescene.mtl
o Cube2
v -1.000000 -1.000000 11.000000
v -1.000000 1.000000 11.000000
v -1.000000 -1.000000 9.000000
v -1.000000 1.000000 9.000000
v 1.000000 -1.000000 11.000000
v 1.000000 1.000000 11.000000
v 1.000000 -1.000000 9.000000
v 1.000000 1.000000 9.000000
vn -1.000000 0.000000 0.000000
vn 0.000000 0.000000 -1.000000
vn 1.000000 0.000000 0.000000
vn 0.000000 -1.000000 0.000000
vn 0.000000 1.000000 0.000000
vn 0.000000 0.000000 1.000000
g Cube2_Cube2_Cube2-a
usemtl Cube2-a
s off
f 4//1 3//1 1//1
f 8//2 7//2 3//2
f 6//3 5//3 7//3
f 3//4 7//4 5//4
f 8//5 4//5 2//5
f 2//1 4//1 1//1
f 4//2 8//2 3//2
f 8//3 6//3 7//3
f 1//4 3//4 5//4
f 6//5 8//5 2//5
g Cube2_Cube2_Cube2-b
usemtl Cube2-b
f 2//6 1//6 5//6
f 6//6 2//6 5//6
o Cube
v 1.000000 -1.000000 -1.000000
v 1.000000 -1.000000 1.000000
v -1.000000 -1.000000 1.000000
v -1.000000 -1.000000 -1.000000
v 1.000000 1.000000 -0.999999
v 0.999999 1.000000 1.000001
v -1.000000 1.000000 1.000000
v -1.000000 1.000000 -1.000000
vn 0.000000 -1.000000 0.000000
vn 0.000000 1.000000 0.000000
vn 1.000000 0.000000 0.000000
vn -0.000000 0.000000 1.000000
vn -1.000000 -0.000000 -0.000000
vn 0.000000 0.000000 -1.000000
g Cube_Cube_Cube1
usemtl Cube1
s off
f 10//7 11//7 12//7
f 16//8 15//8 14//8
f 13//9 14//9 10//9
f 14//10 15//10 11//10
f 11//11 15//11 16//11
f 9//12 12//12 16//12
f 9//7 10//7 12//7
f 13//8 16//8 14//8
f 9//9 13//9 10//9
f 10//10 14//10 11//10
f 12//11 11//11 16//11
f 13//12 9//12 16//12
